<?xml version="1.0" encoding="UTF-8"?>
<svg xmlns="http://www.w3.org/2000/svg" width="16" height="16" viewBox="0 0 16 16" role="img" aria-label="blue_e2k_hawkeye" shape-rendering="crispEdges">
  <title>blue_e2k_hawkeye</title>
  <g fill="currentColor">
  <rect x="7" y="0" width="2" height="1"/>
  <rect x="7" y="1" width="2" height="1"/>
  <rect x="6" y="2" width="4" height="1"/>
  <rect x="5" y="3" width="6" height="1"/>
  <rect x="5" y="4" width="6" height="1"/>
  <rect x="6" y="5" width="4" height="1"/>
  <rect x="6" y="6" width="4" height="1"/>
  <rect x="0" y="7" width="16" height="1"/>
  <rect x="0" y="8" width="16" height="1"/>
  <rect x="0" y="9" width="1" height="1"/>
  <rect x="3" y="9" width="2" height="1"/>
  <rect x="6" y="9" width="4" height="1"/>
  <rect x="11" y="9" width="2" height="1"/>
  <rect x="15" y="9" width="1" height="1"/>
  <rect x="3" y="10" width="2" height="1"/>
  <rect x="6" y="10" width="4" height="1"/>
  <rect x="11" y="10" width="2" height="1"/>
  <rect x="6" y="11" width="4" height="1"/>
  <rect x="3" y="12" width="1" height="1"/>
  <rect x="6" y="12" width="4" height="1"/>
  <rect x="12" y="12" width="1" height="1"/>
  <rect x="3" y="13" width="10" height="1"/>
  <rect x="3" y="14" width="10" height="1"/>
  <rect x="7" y="15" width="2" height="1"/>
  </g>
</svg>
